<svg version="1.1" id="Layer_1" xmlns="http://www.w3.org/2000/svg" xmlns:xlink="http://www.w3.org/1999/xlink" x="0px" y="0px"
	 width="100%" viewBox="0 0 500 500" enable-background="new 0 0 500 500" xml:space="preserve">

<path fill="#DE455C" opacity="1.000000" stroke="none" 
	d="
M307.974243,130.049240 
	C318.351868,133.728302 329.011017,136.771103 339.051208,141.212845 
	C363.365753,151.969513 384.551117,167.162994 399.866211,189.237701 
	C421.776886,220.819016 426.366119,255.726807 418.257080,292.793304 
	C416.801849,299.445160 415.684113,306.174530 414.540588,312.890259 
	C409.766357,340.927826 393.322052,360.771820 370.295319,375.984436 
	C356.409637,385.158051 341.218658,391.419220 325.227936,395.813416 
	C310.646057,399.820465 296.054291,403.793427 281.440277,407.681427 
	C254.323135,414.895782 226.914398,418.732666 198.894333,414.028839 
	C166.461884,408.584290 138.717697,394.966888 119.231216,367.414642 
	C110.900688,355.635956 105.867043,342.359497 104.125534,328.144440 
	C102.742477,316.855255 100.193336,305.993317 96.958611,295.118744 
	C89.916748,271.445251 90.253830,247.482590 95.581268,223.464096 
	C96.064835,221.283905 95.146431,218.811096 94.997124,216.466660 
	C94.865288,214.396667 94.132927,211.919601 94.972412,210.299240 
	C109.790428,181.697495 128.166855,156.032272 155.831741,138.277222 
	C178.826508,123.519440 204.181503,116.879105 231.309097,117.830109 
	C241.734512,118.195587 251.663696,117.427467 261.798340,114.908035 
	C283.067902,109.620506 304.099365,111.444344 324.610199,119.189369 
	C328.340210,120.597832 331.368347,122.538383 330.104309,127.205490 
	C329.111847,130.869720 324.778198,132.366241 320.371521,130.934189 
	C316.969421,129.828598 313.516754,128.878571 309.590271,127.448570 
	C302.761230,126.094971 296.428528,125.152184 290.095795,124.209389 
	C290.010437,124.813759 289.925079,125.418129 289.839722,126.022499 
	C295.884552,127.364746 301.929413,128.707001 307.974243,130.049240 
M272.393463,136.938370 
	C255.870468,131.894608 239.951813,132.064529 225.149460,142.303604 
	C223.653580,143.338348 221.909912,144.010773 220.298386,144.883026 
	C197.757675,157.083282 176.570526,171.153641 159.376434,190.441589 
	C134.115524,218.778687 121.345848,252.686142 116.265495,289.770935 
	C115.043785,298.688965 113.816879,307.530426 119.048302,316.413513 
	C131.318695,337.248810 148.712570,352.196167 169.726212,363.262817 
	C198.344193,378.334198 229.309860,385.062988 261.232208,388.052582 
	C283.638885,390.150970 305.517578,389.070618 325.551758,377.043793 
	C331.973328,373.188782 338.762451,369.933838 345.099091,365.951874 
	C363.888580,354.144562 380.997833,340.392029 392.678284,321.110138 
	C398.709259,311.154266 404.240326,300.977448 402.824066,288.409332 
	C399.105530,255.410828 388.089203,225.189072 368.300751,198.542725 
	C344.356964,166.301071 311.454926,147.446442 272.393463,136.938370 
M162.480438,151.968170 
	C142.429337,163.769913 126.876930,179.737457 116.897560,200.936829 
	C107.065262,221.823792 101.163582,257.371002 107.000458,268.737427 
	C119.837685,208.862137 154.186035,166.595947 205.849884,137.376907 
	C189.940720,138.004196 176.398148,144.422180 162.480438,151.968170 
M160.051025,387.469940 
	C185.786957,401.120636 237.009140,408.515320 248.738953,400.183289 
	C237.140060,397.848419 225.503311,396.009125 214.148438,393.077942 
	C202.910278,390.176849 191.640625,386.926239 180.966309,382.443970 
	C170.141144,377.898376 159.587677,372.338959 149.727509,365.966675 
	C140.164932,359.786682 131.634567,352.009552 122.650887,344.933838 
	C129.638733,363.904816 142.592834,377.247772 160.051025,387.469940 
M400.104431,215.469818 
	C390.843414,195.338303 373.144379,174.482285 364.165375,174.346649 
	C383.324615,193.246628 395.522308,215.804962 404.882324,240.128311 
	C405.534637,239.850800 406.186951,239.573288 406.839294,239.295761 
	C404.698608,231.587814 402.557922,223.879868 400.104431,215.469818 
z"/>

</svg>