<svg version="1.1" id="Layer_1" xmlns="http://www.w3.org/2000/svg" xmlns:xlink="http://www.w3.org/1999/xlink" x="0px" y="0px"
	 width="100%" viewBox="0 0 128 128" enable-background="new 0 0 128 128" xml:space="preserve">

<path fill="#DE445C" opacity="1.000000" stroke="none" 
	d="
M36.208694,119.780830 
	C29.717449,120.334114 27.449587,118.456413 27.080002,112.072365 
	C26.329729,99.112511 26.131842,86.110306 25.017851,73.184891 
	C23.964731,60.965717 21.902664,48.836212 20.590719,36.634327 
	C20.331516,34.223598 21.465994,31.663027 21.869576,29.618301 
	C18.976189,28.277700 15.416021,27.204287 12.632214,25.102558 
	C11.174771,24.002211 10.026917,20.681061 10.644936,19.114843 
	C11.367590,17.283455 14.003328,15.813927 16.120005,15.058449 
	C17.628843,14.519918 19.779751,15.087838 21.424803,15.726732 
	C48.451088,26.223005 76.786446,31.250572 105.207939,35.937023 
	C107.834488,36.370117 110.454132,36.846588 113.072685,37.326393 
	C116.411430,37.938152 119.848495,38.586777 120.771523,42.567127 
	C121.726006,46.683163 120.312035,50.138035 117.049866,52.764366 
	C109.140335,59.132240 101.172073,65.427177 93.263023,71.795647 
	C76.664146,85.161270 60.042572,98.499588 43.549171,111.994370 
	C40.908821,114.154694 38.884125,117.067467 36.208694,119.780830 
M62.504349,71.991486 
	C67.613625,68.531281 72.722908,65.071075 77.640480,61.740704 
	C62.854099,52.758732 48.499054,44.038776 33.780071,35.097752 
	C35.516243,53.678333 37.189201,71.582428 38.902264,89.915703 
	C46.704277,83.987640 54.316498,78.203789 62.504349,71.991486 
M80.985970,48.540417 
	C83.421638,49.611301 85.858597,50.679260 88.292717,51.753639 
	C95.202850,54.803650 95.638794,54.693104 101.119339,48.277332 
	C91.919945,46.689468 82.898994,45.132404 73.878036,43.575336 
	C73.787865,44.046436 73.697693,44.517532 73.607529,44.988628 
	C75.843529,46.057652 78.079521,47.126675 80.985970,48.540417 
z"/>

</svg>