<svg version="1.1" id="Layer_1" xmlns="http://www.w3.org/2000/svg" xmlns:xlink="http://www.w3.org/1999/xlink" x="0px" y="0px"
	 width="100%" viewBox="0 0 98 98" enable-background="new 0 0 98 98" xml:space="preserve">
<path fill="#DD455D" opacity="1.000000" stroke="none" 
	d="
M41.952332,73.859756 
	C37.495113,79.117500 32.079193,80.701157 26.018492,78.730301 
	C20.078249,76.798599 16.810585,72.098389 16.250858,66.024284 
	C15.097051,53.503242 19.224463,42.359901 26.789608,32.656994 
	C31.351040,26.806591 37.874592,27.989546 41.285816,34.586517 
	C43.256592,38.397816 41.517910,43.062107 37.588120,42.914425 
	C31.426325,42.682861 32.027290,47.073208 30.841002,50.522743 
	C45.855503,58.021252 48.485397,63.471478 41.952332,73.859756 
z"/>
<path fill="#DD455D" opacity="1.000000" stroke="none" 
	d="
M77.799866,36.630791 
	C72.527306,39.365273 69.058006,46.086433 70.241280,51.716450 
	C70.473770,52.822689 71.968437,53.886467 73.124290,54.538662 
	C79.316078,58.032410 81.904167,62.237213 81.228600,68.073387 
	C80.578583,73.688812 76.655098,77.632217 70.842064,78.512665 
	C65.884415,79.263557 60.866394,76.572281 58.930237,71.534500 
	C57.884735,68.814148 56.992996,65.654701 57.332390,62.850773 
	C58.523098,53.013622 59.729813,43.114601 62.013023,33.496044 
	C63.522861,27.135500 67.547653,25.513092 73.364372,26.876598 
	C78.899536,28.174107 80.187874,30.764034 77.799866,36.630791 
z"/>
</svg>